HIERARCHY
ROOT hip
{
	OFFSET 0.000000 0.000000 0.000000 
	CHANNELS 6 Xposition Yposition Zposition Xrotation Zrotation Yrotation
	JOINT abdomen
	{
		OFFSET 0.000000 3.402643 0.000000 
		CHANNELS 3 Xrotation Zrotation Yrotation
		JOINT chest
		{
			OFFSET 0.000000 8.438565 -0.680529 
			CHANNELS 3 Xrotation Zrotation Yrotation
			JOINT neck
			{
				OFFSET 0.000000 10.207942 -0.272212 
				CHANNELS 3 Xrotation Zrotation Yrotation
				JOINT head
				{
					OFFSET 0.000000 3.130431 0.000000 
					CHANNELS 3 Xrotation Zrotation Yrotation
					End Site
					{
						OFFSET 0.000000 3.130435 0.000000 
					}
				}
			}
			JOINT lCollar
			{
				OFFSET 3.470700 6.669187 -0.816635 
				CHANNELS 3 Yrotation Zrotation Xrotation
				JOINT lShldr
				{
					OFFSET 3.198488 0.000000 0.000000 
					CHANNELS 3 Zrotation Yrotation Xrotation
					JOINT lForeArm
					{
						OFFSET 10.139888 0.000000 0.000000 
						CHANNELS 3 Yrotation Zrotation Xrotation
						JOINT lHand
						{
							OFFSET 8.370511 0.000000 0.000000 
							CHANNELS 3 Zrotation Yrotation Xrotation
							End Site
							{
								OFFSET 4.083176 0.000000 0.000000 
							}
						}
					}
				}
			}
			JOINT rCollar
			{
				OFFSET -3.470700 6.669187 -0.816635 
				CHANNELS 3 Yrotation Zrotation Xrotation
				JOINT rShldr
				{
					OFFSET -3.198488 0.000000 0.000000 
					CHANNELS 3 Zrotation Yrotation Xrotation
					JOINT rForeArm
					{
						OFFSET -10.139888 0.000000 0.000000 
						CHANNELS 3 Yrotation Zrotation Xrotation
						JOINT rHand
						{
							OFFSET -8.370511 0.000000 0.000000 
							CHANNELS 3 Zrotation Yrotation Xrotation
							End Site
							{
								OFFSET -4.083176 0.000000 0.000000 
							}
						}
					}
				}
			}
		}
	}
	JOINT lThigh
	{
		OFFSET 5.308129 -1.633274 1.361059 
		CHANNELS 3 Xrotation Zrotation Yrotation
		JOINT lShin
		{
			OFFSET -2.041588 -20.007561 0.000000 
			CHANNELS 3 Xrotation Zrotation Yrotation
			JOINT lFoot
			{
				OFFSET 0.000000 -19.190928 -1.224953 
				CHANNELS 3 Xrotation Yrotation Zrotation
				End Site
				{
					OFFSET 0.000000 -2.449906 4.627600 
				}
			}
		}
	}
	JOINT rThigh
	{
		OFFSET -5.308129 -1.633274 1.361059 
		CHANNELS 3 Xrotation Zrotation Yrotation
		JOINT rShin
		{
			OFFSET 2.041588 -20.007561 0.000000 
			CHANNELS 3 Xrotation Zrotation Yrotation
			JOINT rFoot
			{
				OFFSET 0.000000 -19.190928 -1.224953 
				CHANNELS 3 Xrotation Yrotation Zrotation
				End Site
				{
					OFFSET 0.000000 -2.449906 4.627600 
				}
			}
		}
	}
}
MOTION
Frames: 6
Frame Time: 0.033333
-47.592369 41.822144 17.257103 -1.336986 -6.599782 23.990562 0.000000 0.000000 0.000000 31.054506 9.265014 -2.890308 6.931638 4.568885 -14.922377 10.646856 2.732639 -5.810390 -6.683740 -1.539149 25.000000 -57.694569 -55.551731 3.174263 -35.779526 -6.876615 -6.348321 25.442593 9.824167 -2.133356 -9.657610 19.605482 25.000000 33.333431 62.629837 -42.270576 -2.503497 -1.737754 2.715509 -31.551926 -8.755671 -2.063724 -14.989277 6.171518 1.102941 60.511200 5.426912 12.643106 -44.953911 5.033386 -12.132957 -43.067589 -1.768419 4.145467 48.126953 -0.646461 11.523768 -8.914017 -0.768269 9.655811 
-48.057476 41.623936 18.247011 -1.160855 -6.941948 25.432266 0.000000 0.000000 0.000000 31.401604 9.551517 -2.623491 6.316043 4.803695 -14.635530 11.165658 3.014567 -5.773044 -6.295638 -1.706225 25.000000 -59.156330 -56.363777 4.202723 -35.342731 -7.148935 -8.896872 23.489250 10.716460 -2.069857 -10.561772 19.641142 25.000000 33.930695 64.869682 -38.740845 -2.546368 -0.306054 5.845216 -30.771929 -7.466141 -2.438834 -14.689428 7.203376 0.598981 60.676327 6.374563 15.338829 -44.539383 6.500943 -15.816442 -43.877792 -1.494849 2.934127 51.326054 -0.257616 6.471891 -10.558912 -0.805299 8.934690 
-48.457539 41.599777 19.335831 -1.083054 -7.322925 26.259983 0.000000 0.000000 0.000000 31.272243 9.648740 -3.268404 7.103813 4.644957 -13.530898 10.070749 3.270414 -4.408045 -5.900297 -3.140440 25.000000 -58.237709 -53.754833 4.686264 -39.341557 -7.082548 -10.008975 24.005762 10.473413 -2.081567 -12.318579 20.844978 25.000000 34.310066 67.014671 -34.830288 -2.568297 1.053418 8.200161 -28.815773 -5.139780 -3.082083 -13.490233 8.140890 0.252881 59.727081 6.998569 15.824805 -44.508083 7.189187 -17.457592 -43.989628 -1.484264 1.071308 53.321209 0.714863 3.152164 -11.932526 -0.774471 7.493770 
-48.793159 41.783386 20.435585 -1.280655 -7.556727 26.691706 0.000000 0.000000 0.000000 31.553364 9.670872 -3.151712 7.425321 4.572154 -12.681732 8.867441 2.509739 -4.021229 -4.669271 -3.261328 25.000000 -58.177624 -52.823154 6.647757 -42.623039 -6.958953 -9.811634 24.590242 10.706227 -1.995813 -12.130200 19.629099 25.000000 35.685295 67.906693 -31.963684 -2.502886 2.070503 5.855812 -25.153004 -8.488006 -2.438327 -11.053690 8.837090 0.267604 57.422474 7.575024 16.479124 -44.037495 7.654817 -18.803749 -42.912155 -1.240506 -0.268182 54.168049 1.597489 2.312540 -13.534434 -0.717513 5.979754 
-49.052395 42.047649 21.583916 -1.487970 -7.682987 26.975836 0.000000 0.000000 0.000000 31.598783 9.338511 -2.472847 7.716834 4.751315 -11.789107 8.574181 2.949218 -4.249555 -4.578882 -2.536664 25.000000 -59.426838 -51.541389 8.609108 -46.226307 -6.600142 -11.691415 26.573837 11.444017 -1.695347 -9.412396 19.034315 25.000000 32.456207 66.367691 -29.030193 -0.215118 3.915832 1.403396 -26.989719 -8.567523 -2.334836 -10.172656 9.118387 -0.225818 57.204128 8.482632 19.985229 -40.197563 8.288392 -22.453535 -41.532612 -0.917832 -1.252036 54.236423 2.345556 2.720855 -14.797969 -0.600701 4.423883 
-49.279411 42.399513 22.765707 -1.359774 -7.654119 27.505051 0.000000 0.000000 0.000000 31.304106 8.761131 -1.826582 7.798798 5.311321 -11.483240 7.695050 1.376780 -3.908542 -5.498001 -0.682881 25.000000 -61.435532 -49.601852 10.657480 -51.883450 -5.643715 -14.907340 28.174608 12.211244 -1.390521 -9.853942 20.279766 25.000000 22.473721 66.646706 -24.427713 0.368603 6.083369 -1.365523 -28.330578 -6.756096 -2.705832 -12.690481 8.893311 -1.449829 62.279617 9.253771 19.527922 -33.088516 7.281151 -24.156801 -40.039654 -0.468424 -1.691920 53.937592 2.726243 2.448786 -16.099335 -0.504064 3.408769 
